<svg xmlns="http://www.w3.org/2000/svg" width="430" height="430" style="width:100%;height:100%;transform:translate3d(0,0,0);content-visibility:visible" viewBox="0 0 430 430"><defs><clipPath id="L"><path d="M0 0h430v430H0z"/></clipPath><clipPath id="ae"><path d="M0 0h430v430H0z"/></clipPath><clipPath id="x"><path d="M0 0h430v430H0z"/></clipPath><clipPath id="ab"><path d="M0 0h430v430H0z"/></clipPath><clipPath id="B"><path d="M0 0h430v430H0z"/></clipPath><clipPath id="Y"><path d="M0 0h430v430H0z"/></clipPath><clipPath id="C"><path d="M0 0h430v430H0z"/></clipPath><clipPath id="V"><path d="M0 0h430v430H0z"/></clipPath><clipPath id="D"><path d="M0 0h430v430H0z"/></clipPath><clipPath id="S"><path d="M0 0h430v430H0z"/></clipPath><clipPath id="E"><path d="M0 0h430v430H0z"/></clipPath><clipPath id="P"><path d="M0 0h430v430H0z"/></clipPath><clipPath id="F"><path d="M0 0h430v430H0z"/></clipPath><clipPath id="M"><path d="M0 0h430v430H0z"/></clipPath><clipPath id="I"><path d="M0 0h430v430H0z"/></clipPath><filter id="af" width="300%" height="300%" x="-100%" y="-100%"><feGaussianBlur result="filter_result_0"/></filter><filter id="ad" width="300%" height="300%" x="-100%" y="-100%"><feGaussianBlur result="filter_result_0" stdDeviation="52.5 52.5"/></filter><filter id="Z" width="300%" height="300%" x="-100%" y="-100%"><feGaussianBlur result="filter_result_0"/></filter><filter id="W" width="300%" height="300%" x="-100%" y="-100%"><feGaussianBlur result="filter_result_0"/></filter><filter id="T" width="300%" height="300%" x="-100%" y="-100%"><feGaussianBlur result="filter_result_0"/></filter><filter id="j" width="100%" height="100%" x="0%" y="0%" filterUnits="objectBoundingBox"><feComponentTransfer in="SourceGraphic"><feFuncA tableValues="1.0 0.0" type="table"/></feComponentTransfer></filter><filter id="m" width="100%" height="100%" x="0%" y="0%" filterUnits="objectBoundingBox"><feComponentTransfer in="SourceGraphic"><feFuncA tableValues="1.0 0.0" type="table"/></feComponentTransfer></filter><filter id="Q" width="300%" height="300%" x="-100%" y="-100%"><feGaussianBlur result="filter_result_0"/></filter><filter id="p" width="100%" height="100%" x="0%" y="0%" filterUnits="objectBoundingBox"><feComponentTransfer in="SourceGraphic"><feFuncA tableValues="1.0 0.0" type="table"/></feComponentTransfer></filter><filter id="u" width="100%" height="100%" x="0%" y="0%" filterUnits="objectBoundingBox"><feComponentTransfer in="SourceGraphic"><feFuncA tableValues="1.0 0.0" type="table"/></feComponentTransfer></filter><filter id="N" width="300%" height="300%" x="-100%" y="-100%"><feGaussianBlur result="filter_result_0"/></filter><mask id="ag" mask-type="alpha"><use xmlns:ns1="http://www.w3.org/1999/xlink" ns1:href="#a"/></mask><mask id="ac" mask-type="alpha"><use xmlns:ns2="http://www.w3.org/1999/xlink" ns2:href="#b"/></mask><mask id="aa" mask-type="alpha"><use xmlns:ns3="http://www.w3.org/1999/xlink" ns3:href="#d"/></mask><mask id="X" mask-type="alpha"><use xmlns:ns4="http://www.w3.org/1999/xlink" ns4:href="#f"/></mask><mask id="U" mask-type="alpha"><use xmlns:ns5="http://www.w3.org/1999/xlink" ns5:href="#h"/></mask><mask id="H" mask-type="alpha"><g filter="url(#j)"><path fill="#fff" d="M0 0h430v430H0z" opacity="0"/><use xmlns:ns6="http://www.w3.org/1999/xlink" ns6:href="#l"/></g></mask><mask id="G" mask-type="alpha"><g filter="url(#m)"><path fill="#fff" d="M0 0h430v430H0z" opacity="0"/><use xmlns:ns7="http://www.w3.org/1999/xlink" ns7:href="#n"/></g></mask><mask id="R" mask-type="alpha"><use xmlns:ns8="http://www.w3.org/1999/xlink" ns8:href="#o"/></mask><mask id="K" mask-type="alpha"><g filter="url(#p)"><path fill="#fff" d="M0 0h430v430H0z" opacity="0"/><use xmlns:ns9="http://www.w3.org/1999/xlink" ns9:href="#t"/></g></mask><mask id="J" mask-type="alpha"><g filter="url(#u)"><path fill="#fff" d="M0 0h430v430H0z" opacity="0"/><use xmlns:ns10="http://www.w3.org/1999/xlink" ns10:href="#v"/></g></mask><mask id="O" mask-type="alpha"><use xmlns:ns11="http://www.w3.org/1999/xlink" ns11:href="#w"/></mask><g id="a" fill-opacity="0" stroke-linecap="round" stroke-linejoin="round" clip-path="url(#x)" style="display:none"><path class="secondary" style="display:none"/><path class="primary" style="display:none"/><path class="primary" style="display:none"/></g><g id="b" fill-opacity="0" stroke-linecap="round" stroke-linejoin="round" stroke-width="18" clip-path="url(#B)" style="display:block"><path stroke="#08A88A" d="M0-80q0 0 0 0c-44.221 0-80 35.779-80 80s35.779 80 80 80q0 0 0 0c44.221 0 80-35.779 80-80S44.221-80 0-80q0 0 0 0" class="secondary" style="display:block" transform="translate(215 214.999)"/><path stroke="#121331" d="M0-120.658c-84.003 0-156.476 49.36-190 120.658C-156.476 71.298-84.002 120.658 0 120.658c84.003 0 156.476-49.36 190-120.658C156.476-71.298 84.002-120.658 0-120.658" class="primary" style="display:block" transform="translate(215 215)"/></g><g id="d" fill-opacity="0" stroke-linecap="round" stroke-linejoin="round" clip-path="url(#C)" style="display:none"><path class="secondary" style="display:none"/><path class="primary" style="display:none"/></g><g id="f" fill-opacity="0" stroke-linecap="round" stroke-linejoin="round" clip-path="url(#D)" style="display:none"><path class="secondary" style="display:none"/><path class="primary" style="display:none"/><path class="primary" style="display:none"/><path class="primary" style="display:none"/></g><g id="h" fill-opacity="0" stroke-linecap="round" stroke-linejoin="round" clip-path="url(#E)" style="display:none"><path class="secondary" style="display:none"/><path class="primary" style="display:none"/><path class="primary" style="display:none"/><path class="primary" style="display:none"/></g><g id="o" clip-path="url(#F)" style="display:none"><g mask="url(#G)" style="display:none"><path fill-opacity="0" stroke-linecap="round" stroke-linejoin="round" class="secondary"/></g><g mask="url(#H)" style="display:none"><path fill-opacity="0" stroke-linecap="round" stroke-linejoin="round" class="primary"/></g><path fill-opacity="0" stroke-linecap="round" style="display:none"/></g><g id="w" clip-path="url(#I)" style="display:none"><g mask="url(#J)" style="display:none"><path fill-opacity="0" stroke-linecap="round" stroke-linejoin="round" class="secondary"/></g><g mask="url(#K)" style="display:none"><path fill-opacity="0" stroke-linecap="round" stroke-linejoin="round" class="primary"/></g><path fill-opacity="0" stroke-linecap="round" style="display:none"/></g><path id="l" fill-opacity="0" stroke-linecap="round" style="display:none"/><path id="n" fill-opacity="0" stroke-linecap="round" style="display:none"/><path id="t" fill-opacity="0" stroke-linecap="round" style="display:none"/><path id="v" fill-opacity="0" stroke-linecap="round" style="display:none"/></defs><g clip-path="url(#L)"><g clip-path="url(#M)" filter="url(#N)" mask="url(#O)" style="display:none"><g class="design"><path class="primary"/></g><g class="design"><path class="secondary"/></g></g><g clip-path="url(#P)" filter="url(#Q)" mask="url(#R)" style="display:none"><g class="design"><path class="primary"/></g><g class="design"><path class="secondary"/></g></g><g clip-path="url(#S)" filter="url(#T)" mask="url(#U)" style="display:none"><g class="design"><path class="primary"/></g><g class="design"><path class="secondary"/></g></g><g clip-path="url(#V)" filter="url(#W)" mask="url(#X)" style="display:none"><g class="design"><path class="primary"/></g><g class="design"><path class="secondary"/></g></g><g clip-path="url(#Y)" filter="url(#Z)" mask="url(#aa)" style="display:none"><g class="design"><path class="primary"/></g><g class="design"><path class="secondary"/></g></g><g clip-path="url(#ab)" mask="url(#ac)" style="display:block"><g filter="url(#ad)" transform="rotate(-94 238.762 -16.565)scale(2.4)"><g class="design"><path fill="#4AE0EB" d="M0-250c137.975 0 250 112.025 250 250S137.975 250 0 250-250 137.975-250 0-137.975-250 0-250" class="primary"/></g><g class="design"><path fill="#CA5EED" d="M113.242-295.384c97.478 0 176.5 79.022 176.5 176.5s-79.022 176.5-176.5 176.5c-43.948 0-74.396-34.057-105.29-60.631-37.631-32.369-71.21-62.338-71.21-115.869 0-97.478 79.022-176.5 176.5-176.5" class="secondary"/></g></g></g><g clip-path="url(#ae)" filter="url(#af)" mask="url(#ag)" style="display:none"><g class="design"><path class="primary"/></g><g class="design"><path class="secondary"/></g></g></g></svg>